<svg width="40" height="40" viewBox="0 0 40 40" fill="none" xmlns="http://www.w3.org/2000/svg">
<path d="M34.9108 13.8421C34.895 12.5797 34.6587 11.3298 34.2125 10.1488C33.8273 9.15182 33.2379 8.24643 32.4822 7.4907C31.7265 6.73497 30.8211 6.1456 29.8241 5.76042C28.6581 5.32249 27.4261 5.08579 26.1808 5.06042C24.5775 4.98875 24.0691 4.96875 19.9991 4.96875C15.9291 4.96875 15.4075 4.96875 13.8158 5.06042C12.5711 5.08598 11.3397 5.32268 10.1741 5.76042C9.17721 6.1456 8.27182 6.73497 7.51609 7.4907C6.76036 8.24643 6.17099 9.15182 5.78581 10.1488C5.34864 11.3144 5.1125 12.5458 5.08747 13.7904C5.01581 15.3954 4.99414 15.9038 4.99414 19.9738C4.99414 24.0438 4.99414 24.5637 5.08747 26.1571C5.11247 27.4037 5.34747 28.6338 5.78581 29.8021C6.17137 30.7989 6.76109 31.704 7.5171 32.4595C8.27311 33.2149 9.17873 33.8039 10.1758 34.1888C11.3383 34.6436 12.5698 34.8972 13.8175 34.9387C15.4225 35.0104 15.9308 35.0321 20.0008 35.0321C24.0708 35.0321 24.5925 35.0321 26.1841 34.9387C27.4294 34.9139 28.6613 34.6778 29.8275 34.2404C30.8234 33.8534 31.7278 33.2634 32.4833 32.5079C33.2388 31.7524 33.8288 30.848 34.2158 29.8521C34.6541 28.6854 34.8891 27.4554 34.9141 26.2071C34.9858 24.6038 35.0075 24.0954 35.0075 20.0237C35.0041 15.9537 35.0041 15.4371 34.9108 13.8421ZM19.9891 27.6704C15.7325 27.6704 12.2841 24.2221 12.2841 19.9654C12.2841 15.7087 15.7325 12.2604 19.9891 12.2604C22.0326 12.2604 23.9924 13.0722 25.4374 14.5172C26.8824 15.9621 27.6941 17.9219 27.6941 19.9654C27.6941 22.0089 26.8824 23.9687 25.4374 25.4137C23.9924 26.8586 22.0326 27.6704 19.9891 27.6704ZM28.0008 13.7721C27.7648 13.7723 27.5311 13.726 27.313 13.6358C27.0949 13.5456 26.8968 13.4132 26.7299 13.2463C26.563 13.0795 26.4307 12.8813 26.3405 12.6632C26.2502 12.4451 26.2039 12.2114 26.2041 11.9754C26.2041 11.7396 26.2506 11.5061 26.3408 11.2882C26.4311 11.0703 26.5634 10.8723 26.7301 10.7056C26.8969 10.5388 27.0949 10.4065 27.3127 10.3163C27.5306 10.226 27.7641 10.1796 28 10.1796C28.2358 10.1796 28.4693 10.226 28.6872 10.3163C28.9051 10.4065 29.1031 10.5388 29.2698 10.7056C29.4366 10.8723 29.5689 11.0703 29.6591 11.2882C29.7494 11.5061 29.7958 11.7396 29.7958 11.9754C29.7958 12.9688 28.9925 13.7721 28.0008 13.7721Z" fill="#EEAF7C"/>
<path d="M19.9894 24.97C22.7536 24.97 24.9944 22.7291 24.9944 19.965C24.9944 17.2008 22.7536 14.96 19.9894 14.96C17.2252 14.96 14.9844 17.2008 14.9844 19.965C14.9844 22.7291 17.2252 24.97 19.9894 24.97Z" fill="#EEAF7C"/>
</svg>
