<svg width="14" height="14" viewBox="0 0 14 14" fill="none" xmlns="http://www.w3.org/2000/svg">
<path d="M13.9984 11.8337C13.9046 12.2384 13.6834 12.6019 13.3676 12.8703C13.0151 13.2303 12.5943 13.5157 12.1301 13.7097C11.6659 13.9037 11.1677 14.0024 10.6648 14H10.4134C9.36969 13.9453 8.34675 13.6862 7.40225 13.237C7.17328 13.1291 6.95062 13.0283 6.68582 12.9056C5.5789 12.278 4.56291 11.5009 3.66626 10.5962C2.50068 9.49877 1.54555 8.19596 0.848287 6.75247C0.464419 5.965 0.205847 5.12199 0.0819833 4.25414C-0.0910666 3.34979 0.0112436 2.41408 0.375581 1.56895C0.602214 1.18527 0.879607 0.834201 1.20018 0.525333C1.34661 0.364968 1.52368 0.235816 1.72085 0.145566C1.91802 0.0553159 2.13126 0.00581167 2.34788 0C2.58409 0.0250657 2.81293 0.0972311 3.02099 0.212263C3.22905 0.327296 3.41213 0.482879 3.5595 0.669888C3.88962 1.03656 4.27593 1.38914 4.62713 1.76286L5.07946 2.20993C5.34637 2.44474 5.51143 2.77545 5.53812 3.13085C5.53882 3.45803 5.41872 3.77323 5.20097 4.01651C5.06386 4.1871 4.91804 4.35044 4.76409 4.50588L4.61308 4.66454C4.52513 4.74658 4.45651 4.84727 4.4122 4.95929C4.37567 5.06788 4.36303 5.18352 4.37708 5.29776C4.49227 5.61084 4.67278 5.89572 4.90738 6.13265C5.27262 6.62907 5.62381 7.06133 6.01855 7.57256C6.69936 8.36113 7.50648 9.0301 8.40667 9.5519C8.49306 9.62241 8.59631 9.66966 8.70729 9.6887C8.80562 9.70351 8.90466 9.6887 8.99386 9.64498C9.26737 9.498 9.5107 9.30037 9.711 9.06253C9.96386 8.74944 10.3305 8.55059 10.7295 8.50758C10.921 8.50829 11.1104 8.54753 11.2865 8.62299C11.4626 8.69844 11.6219 8.80858 11.7549 8.94688C11.9188 9.08885 12.0741 9.23999 12.2206 9.40029L12.4356 9.63088L12.6582 9.84665C12.7938 9.98345 12.923 10.1061 13.0515 10.25C13.2857 10.4521 13.5034 10.6705 13.7048 10.9051C13.9106 11.1688 14.0145 11.4988 13.9984 11.8337Z" fill="#111111"/>
</svg>
