<svg width="34" height="34" viewBox="0 0 34 34" fill="none" xmlns="http://www.w3.org/2000/svg">
<path d="M16.5889 0C12.1821 0.0205652 7.96283 1.78559 4.85402 4.90897C1.74522 8.03235 -4.79848e-05 12.2598 9.89493e-10 16.6667C9.89501e-10 21.0869 1.75595 25.3262 4.88155 28.4518C8.00716 31.5774 12.2464 33.3333 16.6667 33.3333C21.0869 33.3333 25.3262 31.5774 28.4518 28.4518C31.5774 25.3262 33.3333 21.0869 33.3333 16.6667C33.3333 12.2464 31.5774 8.00716 28.4518 4.88155C25.3262 1.75595 21.0869 0 16.6667 0L16.5889 0ZM23.4806 10.0333C23.6194 10.0306 23.9264 10.0653 24.1264 10.2278C24.2599 10.3427 24.3448 10.504 24.3639 10.6792C24.3861 10.8083 24.4139 11.1042 24.3917 11.3347C24.1417 13.9708 23.0556 20.3653 22.5028 23.3167C22.2694 24.5667 21.8097 24.9847 21.3639 25.025C20.3972 25.1153 19.6625 24.3861 18.725 23.7722C17.2583 22.8097 16.4292 22.2111 15.0056 21.2722C13.3597 20.1889 14.4264 19.5917 15.3639 18.6194C15.6097 18.3639 19.8736 14.4847 19.9569 14.1333C19.9667 14.0889 19.9764 13.925 19.8792 13.8389C19.7819 13.7528 19.6375 13.7819 19.5333 13.8056C19.3861 13.8398 17.0431 15.3884 12.5042 18.4514C11.8375 18.9097 11.2347 19.1319 10.6958 19.1181C10.1014 19.1069 8.95694 18.7833 8.10556 18.5069C7.06111 18.1667 6.23194 17.9875 6.30417 17.4111C6.3412 17.1111 6.75463 16.8042 7.54444 16.4903C12.4028 14.3736 15.6426 12.9782 17.2639 12.3042C21.8917 10.3792 22.8542 10.0444 23.4806 10.0333Z" fill="#EEAF7C"/>
</svg>
